<?xml version="1.0" encoding="UTF-8"?>
<svg width="26px" height="26px" viewBox="0 0 26 26" version="1.1" xmlns="http://www.w3.org/2000/svg" xmlns:xlink="http://www.w3.org/1999/xlink">
    <title>我的</title>
    <defs>
        <path d="M0,5.5 C0,8.537 2.462,11 5.5,11 L5.5,11 C8.538,11 11,8.537 11,5.5 L11,5.5 C11,2.462 8.538,0 5.5,0 L5.5,0 C2.462,0 0,2.462 0,5.5" id="path-1"></path>
        <linearGradient x1="50%" y1="0%" x2="50%" y2="100%" id="linearGradient-3">
            <stop stop-color="#FCD434" offset="0%"></stop>
            <stop stop-color="#FDC514" offset="100%"></stop>
        </linearGradient>
    </defs>
    <g id="首页" stroke="none" stroke-width="1" fill="none" fill-rule="evenodd">
        <g id="首页-白" transform="translate(-15.000000, -58.000000)">
            <g id="编组" transform="translate(15.000000, 58.000000)">
                <path d="M13,0 C5.82,0 0,5.82 0,13 C0,20.18 5.82,26 13,26 C20.18,26 26,20.18 26,13 C26,5.82 20.18,0 13,0" id="Fill-1" fill="#EFEFEF"></path>
                <g transform="translate(7.500000, 4.500000)">
                    <mask id="mask-2" fill="white">
                        <use xlink:href="#path-1"></use>
                    </mask>
                    <g id="Clip-4"></g>
                    <path d="M0,5.5 C0,8.537 2.462,11 5.5,11 L5.5,11 C8.538,11 11,8.537 11,5.5 L11,5.5 C11,2.462 8.538,0 5.5,0 L5.5,0 C2.462,0 0,2.462 0,5.5" id="Fill-3" fill="url(#linearGradient-3)" mask="url(#mask-2)"></path>
                </g>
                <g transform="translate(1.533739, 9.083300)">
                    <path d="M9.17456096,2.75 C8.92156096,2.75 8.71656096,2.49 8.71656096,2.169 L8.71656096,0.581 C8.71656096,0.26 8.92156096,0 9.17456096,0 C9.42756096,0 9.63256096,0.26 9.63256096,0.581 L9.63256096,2.169 C9.63256096,2.491 9.42756096,2.75 9.17456096,2.75" id="Fill-5" fill="#FFFFFF"></path>
                    <path d="M12.841261,2.75 C12.588261,2.75 12.383261,2.49 12.383261,2.169 L12.383261,0.581 C12.383261,0.26 12.588261,0 12.841261,0 C13.094261,0 13.299261,0.26 13.299261,0.581 L13.299261,2.169 C13.299261,2.491 13.094261,2.75 12.841261,2.75" id="Fill-7" fill="#FFFFFF"></path>
                    <path d="M22.663661,10.5218 C21.243661,12.9258 19.066661,14.8338 16.466661,15.9168 L16.466661,7.5468 L20.914661,7.5468 C22.440661,7.5468 23.439661,9.2078 22.663661,10.5218" id="Fill-9" fill="#848E9C"></path>
                    <path d="M6.46626096,7.5467 L6.46626096,15.9167 C3.86626096,14.8337 1.68826096,12.9257 0.269260957,10.5217 C-0.506739043,9.2077 0.492260957,7.5467 2.01826096,7.5467 L6.46626096,7.5467 Z" id="Fill-11" fill="#848E9C"></path>
                    <path d="M16.466261,7.5467 L16.466261,15.9167 C14.926261,16.5567 13.236261,16.9167 11.466261,16.9167 C9.69626096,16.9167 8.00626096,16.5567 6.46626096,15.9167 L6.46626096,7.5467 L11.466261,10.7707 L16.466261,7.5467 Z" id="Fill-13" fill="#B1B5C0"></path>
                </g>
            </g>
        </g>
    </g>
</svg>