<?xml version="1.0" encoding="UTF-8"?>
<svg width="26px" height="26px" viewBox="0 0 26 26" version="1.1" xmlns="http://www.w3.org/2000/svg" xmlns:xlink="http://www.w3.org/1999/xlink">
    <title>邮件</title>
    <defs>
        <linearGradient x1="50%" y1="0%" x2="50%" y2="100%" id="linearGradient-1">
            <stop stop-color="#FCD434" offset="0%"></stop>
            <stop stop-color="#FDC514" offset="100%"></stop>
        </linearGradient>
    </defs>
    <g id="首页" stroke="none" stroke-width="1" fill="none" fill-rule="evenodd">
        <g id="首页-白" transform="translate(-334.000000, -58.000000)" fill-rule="nonzero">
            <g id="邮件" transform="translate(334.000000, 58.000000)">
                <rect id="矩形" fill="#000000" opacity="0" x="0" y="0" width="26" height="26"></rect>
                <g id="编组-3" transform="translate(2.650391, 5.367188)">
                    <path d="M19.8880427,1.08736514 C19.8030224,1.18580972 19.7023404,1.27754217 19.5904716,1.35808774 L11.8178244,6.85979737 C11.8222992,6.90678229 11.8245366,6.95600458 11.8245366,7.00298949 C11.8245366,7.99191005 11.0235557,8.79289096 10.0346351,8.79289096 C9.04571454,8.79289096 8.24473363,7.99191005 8.24473363,7.00298949 C8.24473363,6.96942884 8.24697101,6.93586819 8.24697101,6.90230753 L0.411677337,1.35808774 C0.297571119,1.27754217 0.199126538,1.18580972 0.114106219,1.08736514 C0.040272783,1.2753048 0,1.48114346 0,1.69369426 L0,13.5182308 C0,14.451217 0.7629455,15.2119251 1.69369426,15.2119251 L18.3062173,15.2119251 C19.2392034,15.2119251 20,14.4489796 20,13.5182308 L20,1.69369426 C20.0021489,1.48114346 19.9618761,1.27754217 19.8880427,1.08736514 Z" id="路径" fill="url(#linearGradient-1)"></path>
                    <path d="M19.100486,0.199126538 C18.8633241,0.0715960587 18.5948389,0 18.3084546,0 L1.69369426,0 C1.40731003,0 1.13882481,0.0715960587 0.901662864,0.199126538 C0.899425487,0.208076046 0.899425487,0.217025553 0.899425487,0.223737683 C0.899425487,0.290858988 0.959834662,0.373641931 1.05827924,0.44523799 L8.67654736,5.83731616 C9.00544176,5.4569621 9.49095253,5.21308802 10.0323977,5.21308802 C10.5604187,5.21308802 11.0369799,5.44353784 11.3636369,5.80823026 L18.9416323,0.44523799 C19.0400769,0.375879308 19.100486,0.293096365 19.100486,0.223737683 C19.1027234,0.214788176 19.1027234,0.208076046 19.100486,0.199126538 Z" id="路径" fill="#848E9C"></path>
                </g>
            </g>
        </g>
    </g>
</svg>